<svg width="24" height="24" viewBox="0 0 24 24" fill="none" xmlns="http://www.w3.org/2000/svg">
<g clip-path="url(#clip0_1_93)">
<path d="M20.66 7C23.422 11.783 21.783 17.9 17 20.66C12.877 23.04 7.76701 22.151 4.66501 18.8C4.48936 18.6046 4.39766 18.3479 4.40975 18.0854C4.42184 17.823 4.53674 17.5758 4.72962 17.3974C4.9225 17.219 5.17785 17.1236 5.44046 17.132C5.70308 17.1403 5.95186 17.2517 6.13301 17.442C7.36855 18.7744 9.02088 19.6466 10.8181 19.9148C12.6153 20.1831 14.4503 19.8315 16.0211 18.918C17.5919 18.0045 18.8049 16.5834 19.4604 14.8886C20.116 13.1939 20.175 11.3264 19.6279 9.59366C19.0808 7.86087 17.96 6.36597 16.4501 5.35499C14.9402 4.344 13.1311 3.87717 11.3205 4.03132C9.50993 4.18548 7.80579 4.95142 6.48852 6.20311C5.17125 7.4548 4.31935 9.11765 4.07301 10.918L5.35401 10.583C6.40101 10.31 7.17201 11.553 6.46201 12.37L4.21001 14.957C3.64201 15.609 2.54501 15.387 2.31801 14.513C1.769 12.3949 1.92963 10.1552 2.77529 8.13713C3.62096 6.11906 5.10501 4.43394 7.00001 3.34C11.783 0.578996 17.899 2.217 20.66 7ZM12 6C12.2652 6 12.5196 6.10535 12.7071 6.29289C12.8947 6.48043 13 6.73478 13 7V11.586L15.707 14.293C15.8025 14.3852 15.8787 14.4956 15.9311 14.6176C15.9835 14.7396 16.0111 14.8708 16.0123 15.0036C16.0134 15.1364 15.9881 15.2681 15.9378 15.391C15.8876 15.5138 15.8133 15.6255 15.7194 15.7194C15.6255 15.8133 15.5139 15.8875 15.391 15.9378C15.2681 15.9881 15.1364 16.0134 15.0036 16.0122C14.8708 16.0111 14.7396 15.9835 14.6176 15.9311C14.4956 15.8787 14.3853 15.8025 14.293 15.707L11.293 12.707C11.1055 12.5195 11.0001 12.2652 11 12V7C11 6.73478 11.1054 6.48043 11.2929 6.29289C11.4804 6.10535 11.7348 6 12 6Z" fill="#25B37B"/>
</g>
<defs>
<clipPath id="clip0_1_93">
<rect width="24" height="24" fill="white"/>
</clipPath>
</defs>
</svg>
